<svg width="158" height="54" viewBox="0 0 158 54" fill="none" xmlns="http://www.w3.org/2000/svg">
<g clip-path="url(#clip0_2184_496)">
<path fill-rule="evenodd" clip-rule="evenodd" d="M108.49 42.651C108.644 42.6569 108.782 42.687 108.902 42.7417L109.041 42.733C109.016 43.2623 108.926 43.849 108.772 44.4939C108.618 45.1385 108.357 45.7671 107.988 46.3787C107.651 46.9883 107.178 47.5294 106.57 48.0005C105.923 48.4885 105.185 48.781 104.357 48.8776L104.263 48.8877C104.17 48.8932 104.077 48.9067 103.984 48.9278C103.89 48.9493 103.796 48.9624 103.704 48.9687C102.902 48.9867 102.266 48.9102 101.797 48.7374C101.327 48.565 100.976 48.3311 100.744 48.0358C100.483 47.7104 100.313 47.3802 100.237 47.0437C100.16 46.7076 100.129 46.3843 100.145 46.0734C100.153 45.8865 100.175 45.746 100.21 45.6508C100.267 45.1201 100.476 44.6269 100.837 44.171C101.263 43.6175 101.869 43.192 102.654 42.8957C103.279 42.6957 103.959 42.562 104.693 42.4952C104.804 42.4852 104.917 42.4769 105.032 42.4696C105.557 42.4374 106.074 42.4367 106.58 42.4672C107.088 42.498 107.541 42.5316 107.94 42.5693C108.153 42.6171 108.337 42.6451 108.49 42.651ZM104.882 38.9001C104.804 38.9042 104.726 38.908 104.647 38.9132C103.504 38.9839 102.4 39.1839 101.337 39.5138C100.273 39.8427 99.3109 40.3127 98.4492 40.9244C97.5587 41.5056 96.8608 42.247 96.3557 43.1453C95.8224 43.9847 95.5261 45.0104 95.4686 46.223L95.4572 46.4559C95.4267 47.7287 95.6824 48.8292 96.224 49.7562C96.5927 50.4156 97.0594 50.9608 97.6249 51.39C98.1896 51.8203 98.8206 52.1533 99.5188 52.3894C100.185 52.6265 100.871 52.786 101.576 52.8664C102.281 52.9463 102.958 52.9671 103.606 52.9269L104.145 52.8934L104.21 52.8889C104.395 52.8778 104.581 52.8511 104.768 52.8085C106.166 52.5669 107.444 52.1003 108.603 51.4087C109.182 51.0629 110.013 50.9944 110.308 51.0705C110.603 51.147 110.703 51.7735 111.094 52.2104C111.485 52.6472 113.725 53.3884 114.206 52.0249C114.687 50.6631 114.376 42.3412 114.453 40.7247L114.469 40.3982C114.558 37.2617 113.767 34.7843 112.097 32.966C110.437 31.1563 108.179 30.3359 105.325 30.5024L105.281 30.5048L104.493 30.5533C101.688 30.9022 99.199 32.211 97.1391 34.3312C96.7586 34.7213 96.8712 34.8653 97.0559 35.0239C98.9013 36.6189 100.167 35.8688 101.675 35.3306C102.122 35.1717 102.555 34.9899 102.993 34.8542C103.431 34.7182 103.867 34.622 104.301 34.5638C104.394 34.5583 104.479 34.5455 104.556 34.525C104.635 34.5046 104.72 34.4918 104.813 34.4859C104.916 34.4797 105.017 34.4759 105.116 34.4745C105.851 34.4645 106.483 34.5939 107.014 34.8612C107.797 35.2468 108.366 35.909 108.722 36.8481C108.857 37.2424 108.961 37.647 109.034 38.0603C109.106 38.4747 109.163 38.897 109.204 39.3286C108.504 39.1549 107.77 39.0302 107.003 38.953C106.311 38.8842 105.604 38.8672 104.882 38.9001ZM12.8409 29.8389C12.6854 30.103 12.1518 30.7341 12.0707 30.8016C9.84933 32.6514 8.08223 32.0626 7.47518 31.7615C7.54378 31.2426 7.61135 30.7375 7.67649 30.2661C7.70837 30.0359 7.73955 29.8123 7.76969 29.5956C7.77281 29.5752 7.77628 29.5533 7.7787 29.5329C8.26622 26.0787 8.7274 23.2108 9.07285 21.2848C9.30673 19.9767 9.48829 19.0995 9.58531 18.7842C9.77796 18.1587 9.73534 17.5037 8.41694 17.764C8.19657 17.8077 7.91487 17.8506 7.60234 17.9129C7.38959 17.9555 7.16507 18.0053 6.92668 18.0777C6.04971 18.3438 5.03657 18.8693 4.20742 20.0712C3.75386 20.7282 3.35609 21.5859 3.06573 22.7158C2.97841 23.0536 2.9008 23.416 2.83393 23.8051C2.83393 23.8051 2.75354 24.3226 2.62187 25.197C2.01413 29.2373 0.285484 41.0477 0.0595716 46.2591C0.0276944 47.0019 -0.0533846 47.976 0.0533347 48.7161C0.160054 49.4548 0.427199 50.1471 0.852343 50.7899C1.28269 51.4019 1.88905 51.892 2.6735 52.261C3.22061 52.5193 3.75975 52.6197 3.99502 52.6726C4.83491 52.8623 5.56878 52.3064 5.59858 50.9166C5.59858 50.9166 5.60066 50.8778 5.60412 50.8224C5.63669 50.2693 5.82033 47.1622 5.89622 46.058C6.00987 44.3864 6.5795 39.3886 6.5795 39.3886C6.58781 39.3062 6.59647 39.2221 6.60479 39.1397C7.69139 38.931 8.79254 38.7565 9.16536 39.3907C10.4346 41.5486 12.8049 46.5509 12.8049 46.5509C12.8863 46.7132 12.9684 46.8645 13.0502 47.0182C13.2262 47.3498 13.4026 47.6697 13.5786 47.9646C14.4417 49.4098 15.3093 50.4288 16.1506 51.1443C17.6897 52.4542 19.1402 52.7411 20.3096 52.7276C20.3719 52.7263 20.4291 52.7211 20.4901 52.7183C21.191 52.692 21.7946 52.5681 22.2326 52.5127C23.9269 52.2984 23.2433 51.3693 22.727 50.5825C22.3611 50.0252 20.4215 48.0013 18.8973 44.9337C17.8027 42.7293 15.5335 38.7815 14.0595 35.6547C14.5627 34.8945 16.3363 35.015 19.1228 29.6395C19.461 28.9877 22.1699 22.5718 23.0209 21.4617C23.6522 20.6388 24.1421 20.2176 24.3202 19.9905C25.0565 19.0531 24.1754 18.4982 24.0371 18.4487C23.7125 18.3328 23.3261 18.196 22.8833 18.0995C21.9405 17.8925 20.7697 17.9073 19.3955 18.572C17.9825 19.2549 16.8429 21.1487 16.3183 22.4468C15.5533 24.3403 13.878 28.0791 12.8409 29.8389Z" fill="#2F92ED"/>
<path fill-rule="evenodd" clip-rule="evenodd" d="M45.2152 37.8954C45.2575 37.5129 45.3108 37.0266 45.3763 36.4364C45.4411 35.8462 45.5187 35.2086 45.6105 34.5229C45.702 33.8368 45.8098 33.1511 45.9331 32.4653C46.1441 31.2919 46.3292 30.7633 46.0094 30.6196C45.7911 30.4493 45.2914 30.5193 44.3105 30.7162C43.929 30.792 43.5732 30.9249 43.243 31.0786C42.4675 31.4379 41.9592 31.9125 41.4523 32.5128C40.9284 33.1344 40.548 33.8143 40.2919 34.5353C40.0358 35.2553 39.8664 35.9774 39.7864 36.6981C39.6641 37.7895 39.3969 40.4819 39.163 42.807C38.8661 45.7684 38.1059 48.3448 34.0665 48.5324C30.3587 48.7044 29.2842 45.6476 29.4952 42.9908C29.7679 39.5504 30.139 35.868 30.7516 32.4653C30.964 31.2891 31.2318 30.4483 30.1581 30.5996C29.3677 30.71 28.6643 30.8349 28.05 31.1264C27.2756 31.4926 26.6308 31.979 26.1176 32.5851C25.6007 33.2231 25.2136 33.9088 24.9569 34.6426C24.7005 35.3761 24.5317 36.1096 24.4514 36.8431L23.9455 41.4363C23.7698 43.0299 23.6343 45.2394 24.0539 46.6185C25.5362 51.4837 30.5222 52.9185 33.264 52.9185C34.8929 52.9182 36.3686 52.6312 37.6932 52.0573C38.3768 51.761 39.0189 51.4041 39.6176 50.9887C39.9593 51.3844 40.3865 51.7153 40.9 51.9818C41.3844 52.2331 41.9603 52.3764 42.6137 52.4734C44.0538 52.6873 43.8195 52.5762 43.8968 50.6658C43.9249 49.9914 43.9685 49.3171 44.0281 48.6435C44.0874 47.9692 44.1497 47.3427 44.2145 46.7625C44.2797 46.1827 44.333 45.7047 44.3753 45.3291L44.7284 42.1746C44.7658 41.9319 44.7977 41.6858 44.825 41.4363L45.2152 37.8954ZM48.1749 45.5463C48.1323 45.9292 48.0789 46.4159 48.0135 47.0057C47.9487 47.5959 47.8714 48.2339 47.7792 48.9193C47.6878 49.605 47.58 50.2911 47.457 50.9768C47.246 52.1503 47.0606 52.6785 47.3804 52.8225C47.8108 52.981 48.2647 52.8897 49.0789 52.7259C49.4611 52.6498 49.8169 52.5172 50.1472 52.3635C50.9223 52.0042 51.4309 51.5296 51.9375 50.9297C52.4614 50.3077 52.8422 49.6275 53.0982 48.9068C53.3539 48.1868 53.5234 47.4654 53.6041 46.7444C53.7257 45.6526 53.9929 42.9602 54.2267 40.6351C54.5237 37.6738 55.2839 35.097 59.3233 34.9094C63.0314 34.7377 64.1055 37.7946 63.8945 40.4513C63.6218 43.8914 63.2504 47.5748 62.6378 50.9768C62.4254 52.1537 62.1579 52.9938 63.232 52.8422C64.022 52.7322 64.7251 52.6075 65.3398 52.3161C66.1142 51.9495 66.759 51.4632 67.2721 50.857C67.7894 50.2191 68.1761 49.5333 68.4329 48.7995C68.6893 48.066 68.858 47.3325 68.9384 46.5993L69.4446 42.0059C69.62 40.4122 69.7558 38.2027 69.3358 36.8236C67.8539 31.9584 62.8679 30.5236 60.1258 30.5236C58.4972 30.524 57.0215 30.8109 55.6966 31.3848C55.0129 31.6812 54.3712 32.038 53.7725 32.4531C53.4305 32.0578 53.0033 31.7268 52.4898 31.4603C52.0057 31.209 51.4299 31.066 50.776 30.9688C49.336 30.7548 49.5709 30.866 49.493 32.7764C49.4653 33.4507 49.4216 34.1247 49.362 34.7986C49.3024 35.4722 49.2397 36.0998 49.1752 36.6796C49.1104 37.2594 49.0567 37.7375 49.0148 38.113L48.661 41.2675C48.6243 41.5098 48.5924 41.7563 48.5647 42.0059L48.1749 45.5463Z" fill="#2F92ED"/>
<mask id="mask0_2184_496" style="mask-type:luminance" maskUnits="userSpaceOnUse" x="136" y="16" width="22" height="38">
<path d="M136.933 16.7452H157.942V53.6888H136.933V16.7452Z" fill="white"/>
</mask>
<g mask="url(#mask0_2184_496)">
<path fill-rule="evenodd" clip-rule="evenodd" d="M156.609 30.5212C156.281 30.3685 155.94 30.2719 155.607 30.2062C154.826 30.0525 154.073 30.0521 153.356 30.2294C152.614 30.4121 151.948 30.7178 151.351 31.1242C150.754 31.5306 150.221 31.9851 149.755 32.4887L143.937 38.7655L143.149 39.3131C143.445 36.0313 143.849 32.5043 144.186 29.8181C144.216 29.5786 144.245 29.3456 144.274 29.1206C144.277 29.0995 144.279 29.076 144.283 29.0552C145.055 23.0176 145.762 18.6772 145.989 17.8675C146.171 17.2161 146.131 16.5348 144.885 16.8059C144.535 16.8824 144.032 16.9471 143.477 17.1319C142.648 17.4089 141.691 17.9554 140.908 19.2068C140.48 19.8904 140.104 20.7835 139.829 21.9594C139.747 22.3114 139.674 22.6884 139.61 23.0931C139.61 23.0931 137.249 39.8666 136.989 46.464C136.959 47.2376 136.883 48.2519 136.983 49.0214C137.085 49.7909 137.337 50.5109 137.739 51.1807C138.144 51.8169 138.718 52.3271 139.459 52.7117C139.976 52.9803 140.479 53.1171 140.707 53.1403C141.885 53.2604 142.05 52.6487 142.222 51.3122C142.385 50.0519 142.735 46.2549 142.735 46.2549L147.147 51.0017C147.669 51.5663 148.268 52.0765 148.937 52.5321C149.607 52.9879 150.355 53.3313 151.187 53.5366C151.991 53.7349 152.836 53.7349 153.713 53.5622C154.087 53.4881 154.468 53.3808 154.837 53.2095C156.897 52.2499 156.664 52.1939 155.144 50.7643C154.616 50.2661 154.099 49.7583 153.597 49.2401C153.094 48.7226 152.633 48.2366 152.212 47.7821C151.792 47.3283 151.444 46.9531 151.171 46.6592L147.483 42.6805L147.501 42.6615C147.876 42.2568 148.185 41.9228 148.429 41.6604C152.213 37.5765 153.735 35.934 154.206 35.4258C154.228 35.4026 154.248 35.3812 154.269 35.3576C154.275 35.3514 154.281 35.3452 154.287 35.3389C154.293 35.3324 154.3 35.3244 154.306 35.3185C154.302 35.323 154.297 35.3279 154.293 35.3324C154.301 35.3244 154.306 35.3185 154.312 35.3116C154.676 34.9201 155.073 34.5026 155.504 34.0585C155.952 33.5968 156.412 33.1433 156.883 32.6999C158.237 31.4253 158.445 31.3758 156.609 30.5212Z" fill="#2F92ED"/>
</g>
<path fill-rule="evenodd" clip-rule="evenodd" d="M123.677 38.8504C123.973 35.5685 124.377 32.0416 124.713 29.3551C124.743 29.1159 124.773 28.8826 124.802 28.6576C124.804 28.6361 124.807 28.6133 124.81 28.5918C125.583 22.5545 126.29 18.2144 126.517 17.4048C126.699 16.753 126.658 16.0718 125.413 16.3431C125.063 16.4193 124.559 16.484 124.005 16.6692C123.176 16.9461 122.219 17.4927 121.435 18.7444C121.008 19.4277 120.632 20.3208 120.357 21.4963C120.275 21.8487 120.202 22.2257 120.138 22.6303C120.138 22.6303 117.776 39.4036 117.517 46.0009C117.487 46.7749 117.41 47.7888 117.511 48.5586C117.612 49.3281 117.864 50.0481 118.267 50.7173C118.672 51.3538 119.246 51.8641 119.987 52.249C120.504 52.5173 121.013 52.6221 121.235 52.6772C122.029 52.8748 122.722 52.2957 122.75 50.8495C122.75 50.8495 122.953 47.0556 123.031 45.7922C123.139 44.0524 123.677 38.8504 123.677 38.8504ZM134.591 31.327C134.519 31.2318 134.413 31.1584 134.252 31.1252C134.075 31.0888 133.838 31.0968 133.527 31.1647C133.176 31.2412 132.673 31.3055 132.118 31.4911C131.29 31.7677 130.333 32.3146 129.549 33.5659C129.121 34.2492 128.745 35.142 128.471 36.3182C128.401 36.6169 128.339 36.9378 128.283 37.2743C128.001 39.4235 127.665 42.0602 127.351 44.7335C127.307 45.3646 127.273 45.9458 127.253 46.464C127.223 47.238 127.147 48.2522 127.247 49.0217C127.349 49.7912 127.6 50.5112 128.002 51.1806C128.408 51.8169 128.982 52.3275 129.723 52.712C130.24 52.9807 130.749 53.0852 130.971 53.1406C131.354 53.2358 131.711 53.1468 131.984 52.8706C132.014 52.8401 132.044 52.8093 132.072 52.7743C132.315 52.4673 132.473 51.9851 132.486 51.3125C132.486 51.3125 132.689 47.5187 132.767 46.2552C132.804 45.6536 132.893 44.6366 132.994 43.5646C133.172 41.9518 133.356 40.4135 133.522 39.0815C133.553 38.8427 133.582 38.6094 133.611 38.3844C133.613 38.3629 133.616 38.3401 133.619 38.3186C133.631 38.2269 133.643 38.1365 133.654 38.0455C134.112 34.892 134.479 32.768 134.63 32.2267C134.725 31.8874 134.755 31.5437 134.591 31.327ZM133.048 28.7133C134.731 28.6935 136.007 26.9188 135.972 25.2445C135.939 23.6435 134.629 22.8321 133.01 22.8245C131.356 22.8169 130.081 24.6148 130.113 26.3206C130.145 27.9773 131.397 28.7326 133.048 28.7133Z" fill="#2F92ED"/>
<mask id="mask1_2184_496" style="mask-type:luminance" maskUnits="userSpaceOnUse" x="72" y="21" width="23" height="33">
<path d="M72.1072 21.7755H94.4909V53.6888H72.1072V21.7755Z" fill="white"/>
</mask>
<g mask="url(#mask1_2184_496)">
<path fill-rule="evenodd" clip-rule="evenodd" d="M87.6059 40.1735C87.5633 42.302 87.0903 43.8043 86.627 45.108C85.9181 47.0983 84.1164 48.6353 82.5537 49.0811C81.1414 49.4851 77.8476 49.2462 77.3553 44.2931C77.3161 43.9009 76.9086 41.0098 77.9214 38.746C80.0614 33.9673 83.2661 34.6382 84.6181 35.075C86.9697 35.8355 87.6419 38.3649 87.6059 40.1735ZM94.3424 30.8032C93.92 25.615 91.3234 22.6713 86.7584 21.9804C85.0689 21.7249 83.2747 21.6751 81.6067 22.0198C77.8012 22.8067 78.4391 25.983 78.6026 26.2613C79.0597 27.037 82.5062 26.299 83.5589 26.2782C86.2487 26.2242 89.3162 27.4008 88.9385 32.411C88.6596 32.2843 87.1949 31.311 86.8938 31.2199C86.2085 31.0008 85.5065 30.862 84.7882 30.8032C84.0696 30.7453 83.3818 30.7467 82.7238 30.8087L82.1774 30.861L82.1126 30.8675C81.9245 30.8848 81.7367 30.9184 81.5482 30.9676C80.1355 31.259 78.8532 31.7752 77.6997 32.5163C76.5466 33.2563 75.5553 34.1719 74.7251 35.2613C73.8956 36.3492 73.258 37.594 72.8149 38.9942C72.3713 40.3933 72.1364 41.9161 72.1122 43.5603L72.1077 43.893C72.1208 47.081 73.0058 49.5702 74.7621 51.3623C76.5091 53.146 78.8282 53.8944 81.7221 53.6403C81.7328 53.6393 81.755 53.6348 81.7661 53.6368C81.7661 53.6368 88.5376 53.8518 92.069 46.2973C94.3271 41.4661 94.7775 36.1412 94.3424 30.8032Z" fill="#2F92ED"/>
</g>
<path fill-rule="evenodd" clip-rule="evenodd" d="M73.3664 25.7754C72.9516 25.1973 72.5608 24.4755 72.3439 23.9681C71.4742 21.9386 70.6 19.9115 69.7071 17.892C69.5151 17.4576 69.1645 17.152 68.9212 16.758C68.5425 16.1454 67.6461 15.4721 66.9532 15.3094C66.3794 15.1734 65.737 15.2883 65.238 15.623C64.5658 16.0761 64.0724 16.8377 63.9435 17.6435C63.7692 18.7273 64.0232 19.6834 64.3143 20.7142C64.5201 21.4432 64.7623 22.1612 64.9806 22.886C65.5904 24.9204 66.1625 26.9942 66.9455 28.9655C67.1701 29.5301 68.3966 32.7763 69.4929 34.6251C70.4839 36.2957 71.4825 36.4545 71.8148 34.6269C72.1516 32.7763 72.6301 30.3508 72.9329 29.4806C73.4589 27.9689 74.3158 27.1001 73.3664 25.7754Z" fill="#2F92ED"/>
<path fill-rule="evenodd" clip-rule="evenodd" d="M78.8223 17.8064C78.9144 18.056 78.9574 18.2107 79.2256 18.3692C79.509 18.5381 79.8125 18.4745 80.1105 18.4198C80.4584 18.3561 80.7595 18.3502 81.1046 18.3014C81.4757 18.2484 81.8198 18.3069 82.1947 18.3187C82.5051 18.328 82.8187 18.3903 83.0654 18.1719C83.5415 17.7503 83.4434 16.2878 83.4261 15.6481C83.3911 14.3597 83.248 8.23868 83.2726 6.42414C83.2924 4.93361 83.4323 3.1613 82.2006 1.98299C81.3697 1.18684 79.7765 1.31318 79.2401 2.38764C78.6421 3.58568 78.5329 4.79999 78.4792 6.11468C78.386 8.39826 78.4934 10.7293 78.5402 13.0149C78.5614 14.0596 78.569 15.0853 78.5939 16.1293C78.6064 16.6412 78.7062 17.4921 78.8223 17.8064Z" fill="#2F92ED"/>
<mask id="mask2_2184_496" style="mask-type:luminance" maskUnits="userSpaceOnUse" x="86" y="0" width="10" height="20">
<path d="M86.3123 0.346161H95.9322V19.6654H86.3123V0.346161Z" fill="white"/>
</mask>
<g mask="url(#mask2_2184_496)">
<path fill-rule="evenodd" clip-rule="evenodd" d="M94.6323 0.451377C95.0727 0.613031 95.4545 0.960223 95.6984 1.52861C95.9521 2.12261 95.9857 2.54249 95.8661 3.15034C95.5148 4.93372 91.3909 18.6954 91.2349 19.0236C91.0901 19.3268 91.0056 19.648 90.6158 19.6643C90.2855 19.6781 90.0368 19.4642 89.752 19.3431C89.4602 19.2191 89.1321 19.08 88.8272 18.9858C88.199 18.7913 87.5992 18.6791 86.9662 18.487C86.3179 18.2897 86.2153 18.0391 86.3851 17.4513C86.4693 17.1606 86.5289 16.8601 86.6051 16.5673C87.3553 13.6675 88.2406 10.7972 89.1962 7.95738C89.6736 6.53815 90.1709 5.12272 90.7443 3.73638C91.0769 2.93468 91.404 1.9658 92.0156 1.31088C92.7494 0.524762 93.7927 0.145377 94.6323 0.451377Z" fill="#2F92ED"/>
</g>
<path fill-rule="evenodd" clip-rule="evenodd" d="M103.841 7.16248C104.2 7.28537 104.491 7.53148 104.739 7.84856C105.281 8.53533 104.742 10.1944 104.366 11.0107C103.438 13.0256 98.13 22.1468 97.8663 22.5033C97.6085 22.8509 97.0957 23.7266 96.6792 23.7367C96.164 23.7502 95.76 23.2517 95.4689 22.926C95.155 22.576 94.8383 22.2576 94.4807 21.9651C94.2067 21.7411 94.0202 21.5916 93.716 21.4053C93.4773 21.2596 93.1256 21.0595 93.1314 20.7476C93.1367 20.4735 93.584 19.7788 93.7839 19.4658C94.1245 18.9345 94.3809 18.5378 94.6911 17.9874C95.4689 16.6128 96.3182 15.2649 97.1588 13.927C97.9214 12.7127 98.6996 11.5081 99.4934 10.3139C99.8749 9.73856 100.231 9.10337 100.685 8.5786C101.241 7.93544 101.696 7.43698 102.543 7.19606C102.964 7.07594 103.422 7.01987 103.841 7.16248Z" fill="#2F92ED"/>
<path fill-rule="evenodd" clip-rule="evenodd" d="M108.272 19.8082C107.785 18.5829 106.546 18.8473 105.675 19.4129C104.706 20.0422 99.5613 24.8669 98.8021 25.5392C98.4165 25.8808 98.0066 26.1903 97.991 26.7632C97.9737 27.3589 98.2523 27.9924 98.4335 28.5497C98.5256 28.8332 98.622 29.1014 98.6823 29.3932C98.7325 29.6373 98.8136 29.8571 99.0149 30.0215C99.2235 30.1908 99.5249 30.2095 99.9868 29.9537C100.552 29.6414 100.985 29.1388 101.47 28.7189C102.6 27.7456 103.663 26.6898 104.706 25.6181C105.407 24.8971 106.091 24.1597 106.776 23.4228C107.557 22.5861 108.775 21.0731 108.272 19.8082Z" fill="#2F92ED"/>
</g>
<defs>
<clipPath id="clip0_2184_496">
<rect width="158" height="54" fill="white"/>
</clipPath>
</defs>
</svg>
